<svg width="124" height="20" viewBox="0 0 124 20" fill="none" xmlns="http://www.w3.org/2000/svg">
<path fill-rule="evenodd" clip-rule="evenodd" d="M10.1495 0.609253C12.8729 0.609253 15.1773 1.55078 17.0627 3.43387L14.9678 5.47387C13.6934 4.14873 12.0873 3.48618 10.1495 3.48618C8.299 3.48618 6.7322 4.11386 5.44907 5.36925C4.16593 6.62464 3.52437 8.19386 3.52437 10.0769C3.52437 11.96 4.16593 13.5292 5.44907 14.7846C6.7322 16.04 8.299 16.6677 10.1495 16.6677C12.0873 16.6677 13.6934 16.0052 14.9678 14.68L17.0627 16.72C15.1773 18.6031 12.8729 19.5446 10.1495 19.5446C7.49595 19.5446 5.22213 18.6336 3.32797 16.8116C1.43382 14.9895 0.486755 12.7447 0.486755 10.0769C0.486755 7.40924 1.43382 5.16439 3.32797 3.34233C5.22213 1.52027 7.49595 0.609253 10.1495 0.609253ZM23.1379 3.69541V19.2308H20.1003V0.923099H24.6567C26.5073 0.923099 28.013 1.43745 29.1739 2.46618C30.3348 3.4949 30.9153 4.80258 30.9153 6.38925C30.9153 7.43541 30.6229 8.40745 30.038 9.30541C29.4532 10.2034 28.5934 10.8528 27.4587 11.2539L32.5912 18.1846L30.1559 19.5446L23.7402 10.1031L23.9759 9.10925H24.2116C25.3638 9.10925 26.2628 8.86079 26.9088 8.36387C27.5547 7.86694 27.8777 7.20003 27.8777 6.3631C27.8777 5.50874 27.5678 4.85054 26.948 4.38848C26.3283 3.92643 25.5034 3.69541 24.4734 3.69541H23.1379ZM44.2703 16.3539V19.2308H34.7123V0.923099H44.0346V3.80002H37.7499V7.7231H43.38V10.4954H37.7499V16.3539H44.2703ZM52.7547 19.2308H47.6222V0.923099H52.7547C55.4606 0.923099 57.7257 1.76873 59.55 3.46002C61.3744 5.15131 62.2865 7.35693 62.2865 10.0769C62.2865 12.797 61.3744 15.0026 59.55 16.6939C57.7257 18.3852 55.4606 19.2308 52.7547 19.2308ZM50.6598 3.80002V16.3539H52.7809C54.6838 16.3539 56.2375 15.7872 57.442 14.6539C58.6466 13.5205 59.2489 11.9949 59.2489 10.0769C59.2489 8.15899 58.6466 6.63336 57.442 5.50002C56.2375 4.36668 54.6838 3.80002 52.7809 3.80002H50.6598ZM65.8478 0.923099H68.8855V19.2308H65.8478V0.923099ZM71.766 3.80002V0.923099H83.4451V3.80002H79.1243V19.2308H76.0867V3.80002H71.766ZM101.775 16.8246C99.8726 18.638 97.5857 19.5446 94.9147 19.5446C92.2437 19.5446 89.9524 18.638 88.0408 16.8246C86.1292 15.0113 85.1734 12.7621 85.1734 10.0769C85.1734 7.3918 86.1292 5.1426 88.0408 3.32925C89.9524 1.51591 92.2437 0.609253 94.9147 0.609253C97.5857 0.609253 99.877 1.51591 101.789 3.32925C103.7 5.1426 104.656 7.3918 104.656 10.0769C104.656 12.7621 103.696 15.0113 101.775 16.8246ZM90.6987 14.34C91.8509 15.4734 93.2562 16.04 94.9147 16.04C96.5732 16.04 97.9741 15.469 99.1176 14.3269C100.261 13.1849 100.833 11.7682 100.833 10.0769C100.833 8.38565 100.261 6.969 99.1176 5.82695C97.9741 4.68489 96.5732 4.11387 94.9147 4.11387C93.2562 4.11387 91.8552 4.68489 90.7118 5.82695C89.5683 6.969 88.9966 8.38565 88.9966 10.0769C88.9966 11.7682 89.5639 13.1892 90.6987 14.34ZM119.425 12.0123V0.923099H123.248V19.2046L121.546 19.5446L111.517 8.16771V19.2308H107.694V0.975407L109.396 0.609253L119.425 12.0123Z" fill="#CFE0F4"/>
</svg>
